<svg width="156.000000" height="66.000000" viewBox="0 0 156 66" fill="none" xmlns="http://www.w3.org/2000/svg" xmlns:xlink="http://www.w3.org/1999/xlink">
	<desc>
			Created with Pixso.
	</desc>
	<defs>
		<filter id="filter_23_21_dd" x="0.000000" y="0.000000" width="156.000000" height="66.000000" filterUnits="userSpaceOnUse" color-interpolation-filters="sRGB">
			<feFlood flood-opacity="0" result="BackgroundImageFix"/>
			<feColorMatrix in="SourceAlpha" type="matrix" values="0 0 0 0 0 0 0 0 0 0 0 0 0 0 0 0 0 0 127 0" result="hardAlpha"/>
			<feOffset dx="4" dy="4"/>
			<feGaussianBlur stdDeviation="2.66667"/>
			<feComposite in2="hardAlpha" operator="out" k2="-1" k3="1"/>
			<feColorMatrix type="matrix" values="0 0 0 0 0.94902 0 0 0 0 0.3451 0 0 0 0 0.13333 0 0 0 0.2 0"/>
			<feBlend mode="normal" in2="BackgroundImageFix" result="effect_dropShadow_1"/>
			<feBlend mode="normal" in="SourceGraphic" in2="effect_dropShadow_1" result="shape"/>
		</filter>
	</defs>
	<g filter="url(#filter_23_21_dd)">
		<rect id="Rectangle 3" x="4.000000" y="4.000002" rx="25.000000" width="140.000000" height="50.000000" fill="#F25822" fill-opacity="1.000000"/>
	</g>
	<path id="Start Now" d="M47.56 25.81L46.28 25.81C46.15 24.74 45.15 24.11 43.83 24.11C42.38 24.11 41.42 24.88 41.42 25.92C41.42 27.09 42.72 27.52 43.53 27.73L44.64 28.03C45.77 28.33 47.71 28.99 47.71 31.03C47.71 32.8 46.28 34.19 43.77 34.19C41.42 34.19 39.98 32.97 39.85 31.18L41.21 31.18C41.32 32.42 42.47 33 43.77 33C45.28 33 46.43 32.2 46.43 31.01C46.43 29.93 45.41 29.52 44.26 29.2L42.92 28.82C41.21 28.33 40.14 27.45 40.14 25.98C40.14 24.15 41.79 22.94 43.87 22.94C45.98 22.94 47.5 24.17 47.56 25.81ZM86.91 23.09L88.21 23.09L88.21 34L86.94 34L80.99 25.43L80.88 25.43L80.88 34L79.56 34L79.56 23.09L80.84 23.09L86.81 31.67L86.91 31.67L86.91 23.09ZM51.52 25.81L53.27 25.81L53.27 26.88L51.52 26.88L51.52 31.65C51.52 32.72 52.06 32.89 52.61 32.89C52.89 32.89 53.06 32.85 53.17 32.82L53.42 33.95C53.25 34.02 52.95 34.1 52.48 34.1C51.42 34.1 50.26 33.42 50.26 31.99L50.26 26.88L49.03 26.88L49.03 25.81L50.26 25.81L50.26 23.85L51.52 23.85L51.52 25.81ZM71.53 25.81L73.28 25.81L73.28 26.88L71.53 26.88L71.53 31.65C71.53 32.72 72.06 32.89 72.62 32.89C72.89 32.89 73.07 32.85 73.17 32.82L73.43 33.95C73.26 34.02 72.96 34.1 72.49 34.1C71.43 34.1 70.27 33.42 70.27 31.99L70.27 26.88L69.04 26.88L69.04 25.81L70.27 25.81L70.27 23.85L71.53 23.85L71.53 25.81ZM64.88 34L63.63 34L63.63 25.81L64.84 25.81L64.84 27.05L64.93 27.05C65.23 26.24 66.08 25.69 67.06 25.69C67.24 25.69 67.57 25.7 67.72 25.71L67.72 26.99C67.63 26.96 67.28 26.9 66.95 26.9C65.76 26.9 64.88 27.71 64.88 28.82L64.88 34ZM60 32.89C59.75 33.42 59 34.19 57.58 34.19C56.02 34.19 54.78 33.27 54.78 31.67C54.78 29.8 56.44 29.46 57.96 29.26C59.45 29.07 60.07 29.13 60.07 28.52L60.07 28.48C60.07 27.43 59.5 26.81 58.34 26.81C57.14 26.81 56.49 27.45 56.21 28.05L55.02 27.62C55.66 26.13 57.06 25.71 58.3 25.71C59.34 25.71 61.33 26 61.33 28.6L61.33 34L60.07 34L60.07 32.89L60 32.89ZM97.72 29.95C97.72 32.48 96.23 34.17 94.01 34.17C91.79 34.17 90.3 32.48 90.3 29.95C90.3 27.39 91.79 25.71 94.01 25.71C96.23 25.71 97.72 27.39 97.72 29.95ZM102.45 34L101.21 34L98.72 25.81L100.04 25.81L101.81 32.08L101.89 32.08L103.64 25.81L104.98 25.81L106.71 32.06L106.79 32.06L108.56 25.81L109.88 25.81L107.39 34L106.15 34L104.36 27.71L104.24 27.71L102.45 34ZM91.56 29.95C91.56 31.59 92.33 33.04 94.01 33.04C95.69 33.04 96.46 31.59 96.46 29.95C96.46 28.31 95.69 26.84 94.01 26.84C92.33 26.84 91.56 28.31 91.56 29.95ZM56.04 31.74C56.04 32.61 56.77 33.06 57.77 33.06C59.26 33.06 60.07 32.06 60.07 31.03L60.07 29.88C59.85 30.14 58.43 30.29 57.89 30.35C56.91 30.48 56.04 30.78 56.04 31.74Z" fill="#FFFFFF" fill-opacity="1.000000" fill-rule="evenodd"/>
</svg>
